<svg width="35" height="46" viewBox="0 0 35 46" fill="none" xmlns="http://www.w3.org/2000/svg">
<path d="M34.2343 2.85229C34.705 2.17058 34.534 1.23636 33.8523 0.765655C33.1706 0.29495 32.2364 0.466004 31.7657 1.14771L34.2343 2.85229ZM2.52453 44.2702C2.67373 45.085 3.45528 45.6247 4.27016 45.4755L17.5494 43.0441C18.3643 42.8949 18.9039 42.1133 18.7547 41.2984C18.6055 40.4836 17.824 39.9439 17.0091 40.0931L5.20532 42.2544L3.04406 30.4506C2.89486 29.6357 2.11331 29.0961 1.29843 29.2453C0.483554 29.3945 -0.0560835 30.176 0.0931199 30.9909L2.52453 44.2702ZM31.7657 1.14771L2.76566 43.1477L5.23435 44.8523L34.2343 2.85229L31.7657 1.14771Z" fill="#532F88"/>
</svg>